<svg width="842" height="698" viewBox="0 0 842 698" fill="none" xmlns="http://www.w3.org/2000/svg">
<path fill-rule="evenodd" clip-rule="evenodd" d="M494.292 76.9771V29.2665C494.292 26.5736 493.172 24.1347 491.39 22.3564C489.608 20.578 487.165 19.4602 484.467 19.4602H358.261C355.563 19.4602 353.119 20.578 351.337 22.3564C349.555 24.1347 348.435 26.5736 348.435 29.2665V76.9771H328.886V29.2665C328.886 21.1878 332.195 13.8711 337.49 8.58689C342.784 3.30265 350.166 0 358.21 0H484.416C492.51 0 499.841 3.30265 505.136 8.58689C510.431 13.8711 513.74 21.2386 513.74 29.2665V76.9771H494.19H494.292Z" fill="#152038"/>
<path fill-rule="evenodd" clip-rule="evenodd" d="M187.051 66.2563H343.294V127.432C338.203 119.861 329.548 114.881 319.722 114.881C304.093 114.881 291.416 127.533 291.416 143.132C291.416 158.73 304.093 171.382 319.722 171.382C329.548 171.382 338.203 166.403 343.294 158.781V222.192H279.758C287.344 227.273 292.333 235.911 292.333 245.717C292.333 261.316 279.656 273.968 264.027 273.968C248.397 273.968 235.721 261.316 235.721 245.717C235.721 235.911 240.71 227.273 248.296 222.192H187V66.2563H187.051Z" fill="#FF7A33"/>
<path fill-rule="evenodd" clip-rule="evenodd" d="M343.293 222.192H405.709C398.123 217.111 393.083 208.473 393.083 198.667C393.083 183.068 405.76 170.417 421.389 170.417C437.018 170.417 449.695 183.068 449.695 198.667C449.695 208.473 444.706 217.111 437.12 222.192H499.536V378.128H343.293V315.835C348.384 323.405 357.039 328.436 366.865 328.436C382.494 328.436 395.17 315.784 395.17 300.185C395.17 284.587 382.494 271.935 366.865 271.935C357.039 271.935 348.384 276.914 343.293 284.485V222.192Z" fill="#0077B6"/>
<path fill-rule="evenodd" clip-rule="evenodd" d="M655.778 378.128V222.192H594.483C602.068 227.273 607.057 235.911 607.057 245.717C607.057 261.316 594.381 273.967 578.751 273.967C563.122 273.967 550.446 261.316 550.446 245.717C550.446 235.911 555.435 227.273 563.02 222.192H499.485V284.485C494.394 276.914 485.739 271.884 475.913 271.884C460.284 271.884 447.607 284.536 447.607 300.134C447.607 315.733 460.284 328.385 475.913 328.385C485.739 328.385 494.394 323.405 499.485 315.784V378.077H655.727L655.778 378.128Z" fill="#3F61A9"/>
<path fill-rule="evenodd" clip-rule="evenodd" d="M499.536 66.2563H437.121C444.706 71.3373 449.695 79.975 449.695 89.7814C449.695 105.38 437.019 118.032 421.389 118.032C405.76 118.032 393.083 105.38 393.083 89.7814C393.083 79.975 398.073 71.3373 405.709 66.2563H343.293V127.432C338.202 119.861 329.548 114.881 319.722 114.881C304.093 114.881 291.416 127.533 291.416 143.132C291.416 158.731 304.093 171.382 319.722 171.382C329.548 171.382 338.202 166.403 343.293 158.781V222.192H405.709C398.124 217.111 393.083 208.473 393.083 198.667C393.083 183.068 405.76 170.417 421.389 170.417C437.019 170.417 449.695 183.068 449.695 198.667C449.695 208.473 444.706 217.111 437.121 222.192H499.536V158.781C504.627 166.352 513.282 171.382 523.107 171.382C538.737 171.382 551.413 158.731 551.413 143.132C551.413 127.533 538.737 114.881 523.107 114.881C513.282 114.881 504.627 119.861 499.536 127.432V66.2563Z" fill="#FFCB05"/>
<path fill-rule="evenodd" clip-rule="evenodd" d="M655.779 66.2563H499.536V127.432C504.627 119.861 513.282 114.881 523.107 114.881C538.737 114.881 551.413 127.533 551.413 143.132C551.413 158.73 538.737 171.382 523.107 171.382C513.282 171.382 504.627 166.403 499.536 158.781V222.192H563.072C555.486 227.273 550.497 235.911 550.497 245.717C550.497 261.316 563.174 273.968 578.803 273.968C594.432 273.968 607.109 261.316 607.109 245.717C607.109 235.911 602.12 227.273 594.534 222.192H655.83V66.2563H655.779Z" fill="#FF7A33"/>
<path d="M238.506 648.025H229.418C229.159 646.535 228.681 645.214 227.984 644.064C227.288 642.898 226.421 641.91 225.384 641.1C224.347 640.29 223.165 639.682 221.836 639.277C220.524 638.856 219.107 638.645 217.584 638.645C214.879 638.645 212.481 639.326 210.391 640.687C208.301 642.031 206.665 644.008 205.483 646.616C204.3 649.208 203.709 652.375 203.709 656.117C203.709 659.924 204.3 663.132 205.483 665.74C206.681 668.332 208.318 670.292 210.391 671.62C212.481 672.932 214.871 673.589 217.56 673.589C219.05 673.589 220.443 673.394 221.739 673.005C223.051 672.6 224.226 672.009 225.263 671.231C226.316 670.454 227.199 669.498 227.911 668.364C228.64 667.23 229.143 665.934 229.418 664.476L238.506 664.525C238.166 666.89 237.429 669.109 236.295 671.183C235.177 673.256 233.711 675.087 231.897 676.675C230.082 678.246 227.96 679.477 225.53 680.368C223.1 681.243 220.403 681.68 217.438 681.68C213.064 681.68 209.16 680.668 205.726 678.643C202.291 676.618 199.586 673.694 197.61 669.871C195.633 666.048 194.645 661.463 194.645 656.117C194.645 650.755 195.641 646.17 197.634 642.363C199.626 638.54 202.34 635.616 205.774 633.591C209.209 631.566 213.097 630.554 217.438 630.554C220.208 630.554 222.784 630.942 225.166 631.72C227.547 632.498 229.669 633.64 231.532 635.146C233.395 636.637 234.926 638.467 236.125 640.638C237.34 642.793 238.134 645.255 238.506 648.025ZM286.766 681H277.143L294.663 631.234H305.792L323.337 681H313.714L300.422 641.44H300.033L286.766 681ZM287.081 661.487H313.325V668.729H287.081V661.487ZM405.002 631.234V681H396.983L373.534 647.102H373.121V681H364.106V631.234H372.173L395.598 665.157H396.036V631.234H405.002ZM455.698 631.234L468.65 670.405H469.16L482.088 631.234H492.002L474.457 681H463.328L445.808 631.234H455.698ZM533.348 681H523.725L541.245 631.234H552.375L569.919 681H560.296L547.004 641.44H546.616L533.348 681ZM533.664 661.487H559.908V668.729H533.664V661.487ZM636.932 644.915C636.705 642.793 635.749 641.14 634.065 639.958C632.396 638.775 630.225 638.184 627.552 638.184C625.673 638.184 624.061 638.467 622.717 639.034C621.372 639.601 620.343 640.371 619.631 641.343C618.918 642.315 618.553 643.424 618.537 644.672C618.537 645.709 618.772 646.608 619.242 647.369C619.728 648.13 620.384 648.778 621.21 649.313C622.036 649.831 622.952 650.269 623.956 650.625C624.96 650.982 625.973 651.281 626.993 651.524L631.659 652.691C633.538 653.128 635.344 653.719 637.078 654.465C638.827 655.21 640.391 656.149 641.768 657.283C643.161 658.417 644.262 659.786 645.072 661.39C645.882 662.994 646.287 664.873 646.287 667.028C646.287 669.944 645.542 672.511 644.052 674.731C642.561 676.934 640.407 678.659 637.588 679.907C634.786 681.138 631.392 681.753 627.406 681.753C623.535 681.753 620.173 681.154 617.322 679.955C614.487 678.756 612.268 677.007 610.664 674.706C609.076 672.406 608.218 669.603 608.088 666.299H616.958C617.087 668.032 617.622 669.474 618.561 670.624C619.501 671.774 620.724 672.633 622.231 673.2C623.753 673.767 625.454 674.05 627.334 674.05C629.294 674.05 631.011 673.759 632.485 673.175C633.976 672.576 635.142 671.75 635.984 670.697C636.827 669.628 637.256 668.38 637.272 666.955C637.256 665.659 636.875 664.59 636.13 663.747C635.385 662.889 634.34 662.176 632.995 661.609C631.667 661.026 630.112 660.507 628.33 660.054L622.668 658.596C618.569 657.543 615.329 655.947 612.948 653.809C610.583 651.654 609.4 648.795 609.4 645.231C609.4 642.298 610.194 639.731 611.782 637.528C613.385 635.324 615.564 633.615 618.318 632.4C621.072 631.169 624.191 630.554 627.674 630.554C631.205 630.554 634.3 631.169 636.956 632.4C639.629 633.615 641.727 635.308 643.25 637.479C644.773 639.634 645.558 642.112 645.607 644.915H636.932Z" fill="#0077B6"/>
<path d="M4.31098 522.89C4.31098 514.432 6.1996 506.878 9.97684 500.227C13.8362 493.493 19.0504 488.279 25.6195 484.584C32.2708 480.807 39.7021 478.918 47.9135 478.918C57.5208 478.918 65.9375 481.382 73.1635 486.308C80.3895 491.235 85.4396 498.051 88.3135 506.755H68.483C66.5123 502.649 63.7204 499.57 60.1074 497.517C56.5765 495.464 52.4708 494.438 47.7903 494.438C42.7814 494.438 38.3062 495.628 34.3647 498.01C30.5053 500.309 27.4671 503.593 25.25 507.863C23.1151 512.133 22.0476 517.142 22.0476 522.89C22.0476 528.556 23.1151 533.565 25.25 537.917C27.4671 542.187 30.5053 545.513 34.3647 547.894C38.3062 550.193 42.7814 551.343 47.7903 551.343C52.4708 551.343 56.5765 550.316 60.1074 548.263C63.7204 546.128 66.5123 543.008 68.483 538.902H88.3135C85.4396 547.689 80.3895 554.545 73.1635 559.472C66.0196 564.317 57.6029 566.739 47.9135 566.739C39.7021 566.739 32.2708 564.891 25.6195 561.196C19.0504 557.419 13.8362 552.205 9.97684 545.554C6.1996 538.902 4.31098 531.348 4.31098 522.89ZM229.662 549.618H195.42L189.754 566H171.648L202.564 479.904H222.641L253.557 566H235.328L229.662 549.618ZM224.981 535.823L212.541 499.857L200.101 535.823H224.981ZM383.357 566L364.389 532.498H356.259V566H339.015V480.027H371.286C377.937 480.027 383.603 481.217 388.284 483.599C392.964 485.898 396.454 489.059 398.753 493.083C401.135 497.024 402.325 501.458 402.325 506.385C402.325 512.051 400.683 517.183 397.398 521.782C394.114 526.298 389.228 529.418 382.741 531.143L403.311 566H383.357ZM356.259 519.565H370.67C375.351 519.565 378.841 518.456 381.14 516.239C383.439 513.94 384.589 510.778 384.589 506.755C384.589 502.813 383.439 499.775 381.14 497.64C378.841 495.423 375.351 494.315 370.67 494.315H356.259V519.565ZM815.081 566L796.112 532.498H787.983V566H770.739V480.027H803.01C809.661 480.027 815.327 481.217 820.007 483.599C824.688 485.898 828.178 489.059 830.477 493.083C832.858 497.024 834.049 501.458 834.049 506.385C834.049 512.051 832.407 517.183 829.122 521.782C825.837 526.298 820.952 529.418 814.465 531.143L835.034 566H815.081ZM787.983 519.565H802.394C807.074 519.565 810.564 518.456 812.863 516.239C815.163 513.94 816.312 510.778 816.312 506.755C816.312 502.813 815.163 499.775 812.863 497.64C810.564 495.423 807.074 494.315 802.394 494.315H787.983V519.565Z" fill="#152038"/>
<path d="M509.068 493.945V515.5H538.013V529.172H509.068V551.959H541.709V566H491.824V479.904H541.709V493.945H509.068ZM648.526 493.945V515.5H677.471V529.172H648.526V551.959H681.166V566H631.282V479.904H681.166V493.945H648.526Z" fill="#0077B6"/>
</svg>
