<?xml version="1.0" encoding="UTF-8" standalone="no"?>
<!DOCTYPE svg PUBLIC "-//W3C//DTD SVG 1.1//EN" "http://www.w3.org/Graphics/SVG/1.1/DTD/svg11.dtd">
<!-- Created with Vectornator (http://vectornator.io/) -->
<svg height="100%" stroke-miterlimit="10" style="fill-rule:nonzero;clip-rule:evenodd;stroke-linecap:round;stroke-linejoin:round;" version="1.1" viewBox="0 0 1436 379" width="100%" xml:space="preserve" xmlns="http://www.w3.org/2000/svg" xmlns:vectornator="http://vectornator.io" xmlns:xlink="http://www.w3.org/1999/xlink">
<defs/>
<g id="Untitled" vectornator:layerName="Untitled">
<path d="M229.596 105.753L229.596 70.1061C229.596 68.094 228.759 66.2718 227.427 64.9431C226.096 63.6144 224.271 62.7792 222.255 62.7792L127.959 62.7792C125.943 62.7792 124.117 63.6144 122.786 64.9431C121.454 66.2718 120.617 68.094 120.617 70.1061L120.617 105.753L106.011 105.753L106.011 70.1061C106.011 64.07 108.484 58.6033 112.44 54.6551C116.395 50.707 121.911 48.2394 127.921 48.2394L222.217 48.2394C228.264 48.2394 233.742 50.707 237.698 54.6551C241.654 58.6033 244.126 64.108 244.126 70.1061L244.126 105.753L229.519 105.753L229.596 105.753Z" fill="#152038" fill-rule="evenodd" opacity="1" stroke="none" vectornator:layerName="path"/>
<path d="M0.0380314 97.7433L116.776 97.7433L116.776 143.451C112.972 137.794 106.506 134.074 99.1643 134.074C87.4869 134.074 78.0152 143.527 78.0152 155.182C78.0152 166.836 87.4869 176.289 99.1643 176.289C106.506 176.289 112.972 172.569 116.776 166.874L116.776 214.252L69.3048 214.252C74.9728 218.048 78.7004 224.502 78.7004 231.829C78.7004 243.484 69.2287 252.937 57.5511 252.937C45.8735 252.937 36.4021 243.484 36.4021 231.829C36.4021 224.502 40.1298 218.048 45.7975 214.252L0 214.252L0 97.7433L0.0380314 97.7433Z" fill="#ff7a33" fill-rule="evenodd" opacity="1" stroke="none" vectornator:layerName="path"/>
<path d="M116.776 214.252L163.41 214.252C157.742 210.456 153.976 204.002 153.976 196.675C153.976 185.02 163.448 175.568 175.126 175.568C186.803 175.568 196.275 185.02 196.275 196.675C196.275 204.002 192.547 210.456 186.879 214.252L233.514 214.252L233.514 330.761L116.776 330.761L116.776 284.218C120.579 289.874 127.046 293.633 134.388 293.633C146.065 293.633 155.536 284.18 155.536 272.525C155.536 260.871 146.065 251.418 134.388 251.418C127.046 251.418 120.579 255.138 116.776 260.795L116.776 214.252Z" fill="#0077b6" fill-rule="evenodd" opacity="1" stroke="none" vectornator:layerName="path"/>
<path d="M350.251 330.761L350.251 214.252L304.454 214.252C310.121 218.048 313.849 224.502 313.849 231.829C313.849 243.484 304.378 252.936 292.7 252.936C281.022 252.936 271.551 243.484 271.551 231.829C271.551 224.502 275.279 218.048 280.946 214.252L233.476 214.252L233.476 260.795C229.672 255.138 223.205 251.38 215.864 251.38C204.186 251.38 194.715 260.833 194.715 272.487C194.715 284.142 204.186 293.595 215.864 293.595C223.205 293.595 229.672 289.874 233.476 284.18L233.476 330.723L350.213 330.723L350.251 330.761Z" fill="#3f61a9" fill-rule="evenodd" opacity="1" stroke="none" vectornator:layerName="path"/>
<path d="M233.514 97.7433L186.88 97.7433C192.547 101.54 196.275 107.993 196.275 115.32C196.275 126.975 186.804 136.428 175.126 136.428C163.448 136.428 153.976 126.975 153.976 115.32C153.976 107.993 157.705 101.54 163.41 97.7433L116.776 97.7433L116.776 143.451C112.972 137.794 106.506 134.074 99.1643 134.074C87.4869 134.074 78.0152 143.527 78.0152 155.182C78.0152 166.836 87.4869 176.289 99.1643 176.289C106.506 176.289 112.972 172.569 116.776 166.874L116.776 214.252L163.41 214.252C157.743 210.456 153.976 204.002 153.976 196.675C153.976 185.02 163.448 175.568 175.126 175.568C186.804 175.568 196.275 185.02 196.275 196.675C196.275 204.002 192.547 210.456 186.88 214.252L233.514 214.252L233.514 166.874C237.317 172.531 243.784 176.289 251.125 176.289C262.803 176.289 272.274 166.836 272.274 155.182C272.274 143.527 262.803 134.074 251.125 134.074C243.784 134.074 237.317 137.794 233.514 143.451L233.514 97.7433Z" fill="#ffcb05" fill-rule="evenodd" opacity="1" stroke="none" vectornator:layerName="path"/>
<path d="M350.252 97.7433L233.514 97.7433L233.514 143.451C237.317 137.794 243.784 134.074 251.125 134.074C262.803 134.074 272.274 143.527 272.274 155.182C272.274 166.836 262.803 176.289 251.125 176.289C243.784 176.289 237.317 172.569 233.514 166.874L233.514 214.252L280.985 214.252C275.317 218.048 271.59 224.502 271.59 231.829C271.59 243.484 281.061 252.937 292.739 252.937C304.416 252.937 313.888 243.484 313.888 231.829C313.888 224.502 310.16 218.048 304.492 214.252L350.29 214.252L350.29 97.7433L350.252 97.7433Z" fill="#ff7a33" fill-rule="evenodd" opacity="1" stroke="none" vectornator:layerName="path"/>
<path d="M564.271 281.552L546.143 281.552C545.627 278.58 544.673 275.945 543.283 273.652C541.895 271.326 540.166 269.355 538.097 267.74C536.029 266.124 533.671 264.911 531.02 264.103C528.403 263.264 525.577 262.843 522.539 262.843C517.144 262.843 512.36 264.201 508.192 266.916C504.023 269.597 500.76 273.54 498.402 278.742C496.042 283.912 494.863 290.229 494.863 297.693C494.863 305.286 496.042 311.685 498.402 316.887C500.792 322.057 504.057 325.967 508.192 328.616C512.36 331.233 517.128 332.543 522.491 332.543C525.463 332.543 528.242 332.154 530.827 331.378C533.444 330.57 535.787 329.392 537.856 327.84C539.956 326.29 541.717 324.383 543.138 322.121C544.592 319.859 545.595 317.274 546.143 314.366L564.271 314.464C563.593 319.181 562.122 323.607 559.861 327.744C557.631 331.879 554.706 335.531 551.088 338.699C547.468 341.832 543.235 344.288 538.388 346.065C533.541 347.81 528.162 348.682 522.248 348.682C513.523 348.682 505.736 346.663 498.887 342.624C492.035 338.585 486.64 332.753 482.698 325.127C478.755 317.502 476.784 308.356 476.784 297.693C476.784 286.998 478.771 277.852 482.746 270.259C486.719 262.633 492.133 256.801 498.982 252.762C505.834 248.723 513.589 246.704 522.248 246.704C527.773 246.704 532.911 247.478 537.662 249.03C542.412 250.582 546.644 252.86 550.36 255.863C554.076 258.837 557.13 262.488 559.521 266.818C561.945 271.116 563.529 276.027 564.271 281.552ZM660.532 347.325L641.337 347.325L676.283 248.06L698.482 248.06L733.477 347.325L714.283 347.325L687.77 268.418L686.994 268.418L660.532 347.325ZM661.16 308.404L713.507 308.404L713.507 322.849L661.16 322.849L661.16 308.404ZM896.369 248.06L896.369 347.325L880.374 347.325L833.602 279.711L832.778 279.711L832.778 347.325L814.797 347.325L814.797 248.06L830.887 248.06L877.612 315.724L878.485 315.724L878.485 248.06L896.369 248.06ZM997.493 248.06L1023.32 326.192L1024.34 326.192L1050.13 248.06L1069.9 248.06L1034.91 347.325L1012.71 347.325L977.766 248.06L997.493 248.06ZM1152.38 347.325L1133.19 347.325L1168.13 248.06L1190.31 248.06L1225.32 347.325L1206.13 347.325L1179.6 268.418L1178.85 268.418L1152.38 347.325ZM1152.99 308.404L1205.35 308.404L1205.35 322.849L1152.99 322.849L1152.99 308.404ZM1358.98 275.349C1358.54 271.116 1356.63 267.819 1353.26 265.462C1349.94 263.102 1345.62 261.923 1340.27 261.923C1336.52 261.923 1333.31 262.488 1330.64 263.619C1327.94 264.75 1325.89 266.285 1324.47 268.224C1323.06 270.163 1322.32 272.375 1322.3 274.864C1322.3 276.933 1322.76 278.726 1323.7 280.244C1324.67 281.762 1325.97 283.054 1327.62 284.121C1329.28 285.155 1331.1 286.028 1333.11 286.738C1335.1 287.45 1337.12 288.047 1339.15 288.532L1348.47 290.859C1352.22 291.731 1355.81 292.91 1359.28 294.398C1362.77 295.884 1365.88 297.757 1368.63 300.019C1371.41 302.281 1373.6 305.011 1375.22 308.211C1376.83 311.41 1377.65 315.158 1377.65 319.456C1377.65 325.273 1376.15 330.393 1373.18 334.821C1370.21 339.215 1365.92 342.656 1360.3 345.145C1354.71 347.601 1347.93 348.827 1339.99 348.827C1332.25 348.827 1325.55 347.633 1319.87 345.241C1314.22 342.849 1309.79 339.361 1306.58 334.771C1303.43 330.184 1301.71 324.593 1301.46 318.002L1319.15 318.002C1319.41 321.459 1320.46 324.335 1322.34 326.629C1324.21 328.923 1326.65 330.636 1329.66 331.767C1332.69 332.898 1336.08 333.463 1339.83 333.463C1343.74 333.463 1347.17 332.882 1350.12 331.717C1353.1 330.523 1355.41 328.875 1357.09 326.775C1358.78 324.642 1359.64 322.153 1359.66 319.311C1359.64 316.726 1358.88 314.593 1357.38 312.912C1355.89 311.201 1353.81 309.778 1351.14 308.647C1348.49 307.485 1345.38 306.449 1341.83 305.546L1330.54 302.638C1322.36 300.537 1315.9 297.354 1311.15 293.089C1306.42 288.791 1304.07 283.088 1304.07 275.979C1304.07 270.129 1305.64 265.009 1308.82 260.615C1312.03 256.219 1316.36 252.81 1321.86 250.386C1327.35 247.931 1333.57 246.704 1340.51 246.704C1347.57 246.704 1353.73 247.931 1359.04 250.386C1364.37 252.81 1368.55 256.187 1371.59 260.517C1374.62 264.815 1376.19 269.758 1376.29 275.349L1358.98 275.349Z" fill="#0077b6" fill-rule="nonzero" opacity="1" stroke="none" vectornator:layerName="path"/>
<path d="M423.475 136.455C423.475 126.217 425.761 117.073 430.333 109.022C435.004 100.871 441.316 94.5597 449.269 90.0871C457.319 85.5152 466.314 83.2286 476.253 83.2286C487.884 83.2286 498.071 86.2112 506.819 92.1739C515.566 98.1379 521.679 106.388 525.157 116.924L501.153 116.924C498.767 111.954 495.387 108.227 491.014 105.742C486.741 103.257 481.771 102.015 476.105 102.015C470.041 102.015 464.625 103.455 459.854 106.339C455.182 109.122 451.504 113.097 448.821 118.265C446.236 123.434 444.945 129.497 444.945 136.455C444.945 143.314 446.236 149.377 448.821 154.645C451.504 159.813 455.182 163.839 459.854 166.722C464.625 169.504 470.041 170.896 476.105 170.896C481.771 170.896 486.741 169.653 491.014 167.168C495.387 164.584 498.767 160.807 501.153 155.837L525.157 155.837C521.679 166.473 515.566 174.772 506.819 180.736C498.171 186.601 487.983 189.533 476.253 189.533C466.314 189.533 457.319 187.296 449.269 182.823C441.316 178.251 435.004 171.94 430.333 163.889C425.761 155.837 423.475 146.693 423.475 136.455ZM696.254 168.808L654.805 168.808L647.947 188.638L626.03 188.638L663.453 84.4221L687.755 84.4221L725.178 188.638L703.113 188.638L696.254 168.808ZM690.588 152.11L675.53 108.574L660.471 152.11L690.588 152.11ZM882.296 188.638L859.336 148.085L849.495 148.085L849.495 188.638L828.622 188.638L828.622 84.571L867.685 84.571C875.736 84.571 882.594 86.0115 888.26 88.8948C893.925 91.6776 898.15 95.5039 900.933 100.375C903.816 105.145 905.256 110.512 905.256 116.476C905.256 123.335 903.269 129.547 899.292 135.114C895.317 140.58 889.403 144.357 881.551 146.445L906.45 188.638L882.296 188.638ZM849.495 132.43L866.939 132.43C872.605 132.43 876.83 131.088 879.613 128.404C882.395 125.621 883.788 121.794 883.788 116.924C883.788 112.153 882.395 108.475 879.613 105.891C876.83 103.207 872.605 101.866 866.939 101.866L849.495 101.866L849.495 132.43ZM1404.88 188.638L1381.92 148.085L1372.08 148.085L1372.08 188.638L1351.21 188.638L1351.21 84.571L1390.27 84.571C1398.32 84.571 1405.18 86.0115 1410.85 88.8948C1416.51 91.6776 1420.74 95.5039 1423.52 100.375C1426.4 105.145 1427.84 110.512 1427.84 116.476C1427.84 123.335 1425.86 129.547 1421.88 135.114C1417.91 140.58 1411.99 144.357 1404.13 146.445L1429.03 188.638L1404.88 188.638ZM1372.08 132.43L1389.52 132.43C1395.19 132.43 1399.41 131.088 1402.19 128.404C1404.98 125.621 1406.37 121.794 1406.37 116.924C1406.37 112.153 1404.98 108.475 1402.19 105.891C1399.41 103.207 1395.19 101.866 1389.52 101.866L1372.08 101.866L1372.08 132.43Z" fill="#152038" fill-rule="nonzero" opacity="1" stroke="none" vectornator:layerName="path"/>
<path d="M1034.47 101.418L1034.47 127.51L1069.5 127.51L1069.5 144.059L1034.47 144.059L1034.47 171.642L1073.98 171.642L1073.98 188.638L1013.59 188.638L1013.59 84.4221L1073.98 84.4221L1073.98 101.418L1034.47 101.418ZM1203.28 101.418L1203.28 127.51L1238.31 127.51L1238.31 144.059L1203.28 144.059L1203.28 171.642L1242.79 171.642L1242.79 188.638L1182.4 188.638L1182.4 84.4221L1242.79 84.4221L1242.79 101.418L1203.28 101.418Z" fill="#0077b6" fill-rule="nonzero" opacity="1" stroke="none" vectornator:layerName="path"/>
</g>
</svg>
